<?xml version="1.0" standalone="no"?>
<!DOCTYPE svg PUBLIC "-//W3C//DTD SVG 20010904//EN"
 "http://www.w3.org/TR/2001/REC-SVG-20010904/DTD/svg10.dtd">
<svg version="1.0" xmlns="http://www.w3.org/2000/svg"
 width="150.000000pt" height="150.000000pt" viewBox="0 0 150.000000 150.000000"
 preserveAspectRatio="xMidYMid meet">
<metadata>
Created by potrace 1.11, written by Peter Selinger 2001-2013
</metadata>
<g transform="translate(0.000000,150.000000) scale(0.100000,-0.100000)"
fill="#000000" stroke="none">
<path d="M0 750 l0 -750 750 0 750 0 0 750 0 750 -750 0 -750 0 0 -750z m1213
551 c70 -34 150 -112 183 -178 26 -51 29 -66 29 -157 0 -92 -3 -106 -30 -160
-17 -34 -50 -76 -78 -101 l-49 -43 16 -64 c20 -80 20 -91 0 -159 -21 -72 -99
-150 -166 -167 -61 -16 -708 -16 -792 -1 -131 23 -211 91 -247 211 -25 81 -21
136 17 215 44 91 149 163 239 163 29 0 33 5 55 57 52 124 181 213 311 213 32
0 41 5 59 35 32 52 113 119 172 143 75 31 212 27 281 -7z"/>
</g>
</svg>
