<?xml version="1.0" standalone="no"?>
<!DOCTYPE svg PUBLIC "-//W3C//DTD SVG 20010904//EN"
 "http://www.w3.org/TR/2001/REC-SVG-20010904/DTD/svg10.dtd">
<svg version="1.0" xmlns="http://www.w3.org/2000/svg"
 width="75.000000pt" height="75.000000pt" viewBox="0 0 75.000000 75.000000"
 preserveAspectRatio="xMidYMid meet">
<metadata>
Created by potrace 1.11, written by Peter Selinger 2001-2013
</metadata>
<g transform="translate(0.000000,75.000000) scale(0.100000,-0.100000)"
fill="#000000" stroke="none">
<path d="M280 563 c-62 -76 -100 -191 -100 -303 0 -45 -1 -47 -25 -42 -24 4
-25 3 -25 -53 0 -51 2 -56 18 -50 50 21 58 18 76 -29 12 -33 21 -43 32 -39 11
4 12 8 4 13 -13 8 -10 61 4 72 5 3 2 24 -8 47 -18 47 -20 63 -5 41 8 -11 9 -3
5 30 l-6 45 24 -51 c13 -29 40 -70 60 -92 l36 -39 -30 -6 c-16 -4 -30 -10 -30
-14 0 -5 14 -26 31 -47 l32 -38 29 46 c15 26 40 52 53 58 35 16 32 23 -18 42
-63 24 -122 78 -153 141 -24 50 -26 63 -22 139 4 71 9 91 31 125 34 51 28 53
-13 4z"/>
<path d="M477 183 c17 -3 22 -13 25 -47 5 -68 1 -77 -30 -65 -19 7 -24 7 -17
0 6 -6 21 -12 34 -13 20 -3 25 4 38 47 8 28 22 58 30 68 15 16 13 17 -43 16
-32 -1 -49 -4 -37 -6z"/>
</g>
</svg>
